<mxfile host="app.diagrams.net" modified="2024-08-08T04:43:47.748Z" agent="Mozilla/5.0 (Windows NT 10.0; Win64; x64) AppleWebKit/537.36 (KHTML, like Gecko) Chrome/127.0.0.0 Safari/537.36 Edg/127.0.0.0" etag="zwb1Vnwkq5MF8y_M8AUl" version="24.4.13" type="device">
  <diagram name="Page-1" id="WdDIev4LB0pEJQpobWHl">
    <mxGraphModel dx="832" dy="437" grid="1" gridSize="10" guides="1" tooltips="1" connect="1" arrows="1" fold="1" page="1" pageScale="1" pageWidth="850" pageHeight="1100" math="0" shadow="0">
      <root>
        <mxCell id="0" />
        <mxCell id="1" parent="0" />
        <mxCell id="mzv88ae2S8IAAq10sG1t-10" style="edgeStyle=orthogonalEdgeStyle;rounded=0;orthogonalLoop=1;jettySize=auto;html=1;exitX=0.5;exitY=0;exitDx=0;exitDy=0;entryX=1;entryY=0.5;entryDx=0;entryDy=0;" parent="1" source="mzv88ae2S8IAAq10sG1t-1" target="mzv88ae2S8IAAq10sG1t-4" edge="1">
          <mxGeometry relative="1" as="geometry">
            <mxPoint x="400" y="60" as="targetPoint" />
            <Array as="points">
              <mxPoint x="415" y="60" />
            </Array>
          </mxGeometry>
        </mxCell>
        <mxCell id="mzv88ae2S8IAAq10sG1t-13" style="edgeStyle=orthogonalEdgeStyle;rounded=0;orthogonalLoop=1;jettySize=auto;html=1;" parent="1" source="mzv88ae2S8IAAq10sG1t-1" target="mzv88ae2S8IAAq10sG1t-12" edge="1">
          <mxGeometry relative="1" as="geometry" />
        </mxCell>
        <mxCell id="mzv88ae2S8IAAq10sG1t-15" style="edgeStyle=orthogonalEdgeStyle;rounded=0;orthogonalLoop=1;jettySize=auto;html=1;entryX=0;entryY=0.5;entryDx=0;entryDy=0;" parent="1" source="mzv88ae2S8IAAq10sG1t-1" target="mzv88ae2S8IAAq10sG1t-5" edge="1">
          <mxGeometry relative="1" as="geometry" />
        </mxCell>
        <mxCell id="mzv88ae2S8IAAq10sG1t-1" value="&lt;font face=&quot;Times New Roman&quot;&gt;ESP32 Devkit&lt;/font&gt;" style="whiteSpace=wrap;html=1;aspect=fixed;" parent="1" vertex="1">
          <mxGeometry x="330" y="140" width="170" height="170" as="geometry" />
        </mxCell>
        <mxCell id="mzv88ae2S8IAAq10sG1t-3" value="&lt;font face=&quot;Times New Roman&quot;&gt;INDO MED VENDING MOTOR&lt;/font&gt;&lt;div&gt;&lt;font face=&quot;Times New Roman&quot;&gt;&lt;br&gt;&lt;/font&gt;&lt;/div&gt;" style="whiteSpace=wrap;html=1;aspect=fixed;" parent="1" vertex="1">
          <mxGeometry x="110" y="340" width="80" height="80" as="geometry" />
        </mxCell>
        <mxCell id="mzv88ae2S8IAAq10sG1t-4" value="&lt;font face=&quot;Times New Roman&quot;&gt;TOUCH SCREEN&lt;/font&gt;" style="whiteSpace=wrap;html=1;aspect=fixed;" parent="1" vertex="1">
          <mxGeometry x="110" y="20" width="80" height="80" as="geometry" />
        </mxCell>
        <mxCell id="mzv88ae2S8IAAq10sG1t-5" value="&lt;font face=&quot;Times New Roman&quot;&gt;SERVO MOTOR&lt;/font&gt;" style="whiteSpace=wrap;html=1;aspect=fixed;" parent="1" vertex="1">
          <mxGeometry x="550" y="340" width="80" height="80" as="geometry" />
        </mxCell>
        <mxCell id="mzv88ae2S8IAAq10sG1t-6" value="&lt;font face=&quot;Times New Roman&quot;&gt;IR SENSOR&lt;/font&gt;" style="whiteSpace=wrap;html=1;aspect=fixed;" parent="1" vertex="1">
          <mxGeometry x="375" y="360" width="80" height="80" as="geometry" />
        </mxCell>
        <mxCell id="mzv88ae2S8IAAq10sG1t-14" style="edgeStyle=orthogonalEdgeStyle;rounded=0;orthogonalLoop=1;jettySize=auto;html=1;exitX=0.5;exitY=1;exitDx=0;exitDy=0;entryX=0.5;entryY=0;entryDx=0;entryDy=0;" parent="1" source="mzv88ae2S8IAAq10sG1t-12" target="mzv88ae2S8IAAq10sG1t-3" edge="1">
          <mxGeometry relative="1" as="geometry" />
        </mxCell>
        <mxCell id="mzv88ae2S8IAAq10sG1t-12" value="&lt;font face=&quot;Times New Roman&quot;&gt;MOTOR DRIVER&lt;/font&gt;" style="whiteSpace=wrap;html=1;aspect=fixed;" parent="1" vertex="1">
          <mxGeometry x="110" y="185" width="80" height="80" as="geometry" />
        </mxCell>
        <mxCell id="mzv88ae2S8IAAq10sG1t-17" value="" style="sketch=0;pointerEvents=1;shadow=0;dashed=0;html=1;strokeColor=none;fillColor=#434445;aspect=fixed;labelPosition=center;verticalLabelPosition=bottom;verticalAlign=top;align=center;outlineConnect=0;shape=mxgraph.vvd.wi_fi;" parent="1" vertex="1">
          <mxGeometry x="520" y="90" width="60" height="60" as="geometry" />
        </mxCell>
        <mxCell id="mzv88ae2S8IAAq10sG1t-19" value="" style="verticalLabelPosition=bottom;verticalAlign=top;html=1;shadow=0;dashed=0;strokeWidth=1;shape=mxgraph.android.phone2;strokeColor=#c0c0c0;" parent="1" vertex="1">
          <mxGeometry x="630" y="30" width="150" height="230" as="geometry" />
        </mxCell>
        <mxCell id="mzv88ae2S8IAAq10sG1t-24" value="MOBILE APP" style="whiteSpace=wrap;html=1;aspect=fixed;" parent="1" vertex="1">
          <mxGeometry x="640" y="80" width="130" height="130" as="geometry" />
        </mxCell>
        <mxCell id="mzv88ae2S8IAAq10sG1t-26" value="" style="endArrow=classic;startArrow=classic;html=1;rounded=0;entryX=0.5;entryY=1;entryDx=0;entryDy=0;exitX=0.5;exitY=0;exitDx=0;exitDy=0;" parent="1" source="mzv88ae2S8IAAq10sG1t-6" target="mzv88ae2S8IAAq10sG1t-1" edge="1">
          <mxGeometry width="50" height="50" relative="1" as="geometry">
            <mxPoint x="380" y="370" as="sourcePoint" />
            <mxPoint x="430" y="320" as="targetPoint" />
          </mxGeometry>
        </mxCell>
      </root>
    </mxGraphModel>
  </diagram>
</mxfile>
